<svg
   xmlns:dc="http://purl.org/dc/elements/1.1/"
   xmlns:cc="http://creativecommons.org/ns#"
   xmlns:rdf="http://www.w3.org/1999/02/22-rdf-syntax-ns#"
   xmlns:svg="http://www.w3.org/2000/svg"
   xmlns="http://www.w3.org/2000/svg"
   xmlns:sodipodi="http://sodipodi.sourceforge.net/DTD/sodipodi-0.dtd"
   xmlns:inkscape="http://www.inkscape.org/namespaces/inkscape"
   version="1.1"
   id="Capa_1"
   x="0px"
   y="0px"
   width="44.238px"
   height="44.238px"
   viewBox="0 0 44.238 44.238"
   xml:space="preserve"
   inkscape:version="0.91 r13725"
   sodipodi:docname="delete.svg"
   style="enable-background:new 0 0 44.238 44.238;"><metadata
     id="metadata51"><rdf:RDF><cc:Work
         rdf:about=""><dc:format>image/svg+xml</dc:format><dc:type
           rdf:resource="http://purl.org/dc/dcmitype/StillImage" /><dc:title></dc:title></cc:Work></rdf:RDF></metadata><defs
     id="defs49" /><sodipodi:namedview
     pagecolor="#ffffff"
     bordercolor="#666666"
     borderopacity="1"
     objecttolerance="10"
     gridtolerance="10"
     guidetolerance="10"
     inkscape:pageopacity="0"
     inkscape:pageshadow="2"
     inkscape:window-width="1600"
     inkscape:window-height="837"
     id="namedview47"
     showgrid="false"
     inkscape:zoom="5.3347802"
     inkscape:cx="68.874387"
     inkscape:cy="22.118999"
     inkscape:window-x="-8"
     inkscape:window-y="-8"
     inkscape:window-maximized="1"
     inkscape:current-layer="Capa_1"
     showguides="true"
     inkscape:guide-bbox="true" /><g
     id="g4230"><circle
       r="21"
       cy="22.237999"
       cx="22"
       id="path4208"
       style="color:#000000;display:inline;overflow:visible;visibility:visible;fill:#ffffff;fill-opacity:1;fill-rule:nonzero;stroke:none;stroke-width:0.40000001;stroke-linecap:round;stroke-linejoin:round;stroke-miterlimit:4;stroke-dasharray:none;stroke-opacity:1;marker:none;enable-background:accumulate" /><g
       style="fill:#000000;fill-opacity:1"
       id="g7"><path
         inkscape:connector-curvature="0"
         style="fill:#000000;fill-opacity:1"
         id="path9"
         d="m 15.533,29.455 c -0.192,0 -0.384,-0.073 -0.53,-0.22 -0.293,-0.293 -0.293,-0.769 0,-1.062 L 28.174,15.002 c 0.293,-0.293 0.768,-0.293 1.061,0 0.293,0.293 0.293,0.768 0,1.061 L 16.063,29.235 c -0.146,0.147 -0.338,0.22 -0.53,0.22 z" /></g><g
       style="fill:#000000;fill-opacity:1"
       id="g11"><path
         inkscape:connector-curvature="0"
         style="fill:#000000;fill-opacity:1"
         id="path13"
         d="m 28.704,29.455 c -0.192,0 -0.384,-0.073 -0.53,-0.22 L 15.002,16.064 c -0.293,-0.293 -0.293,-0.768 0,-1.061 0.293,-0.293 0.768,-0.293 1.061,0 l 13.171,13.171 c 0.293,0.293 0.293,0.769 0,1.062 -0.146,0.146 -0.338,0.219 -0.53,0.219 z" /></g><path
       inkscape:connector-curvature="0"
       style="fill:#ff0000;fill-opacity:1"
       id="path15"
       d="M 22.119,44.237 C 9.922,44.237 0,34.315 0,22.12 0,9.924 9.922,0.001 22.119,0.001 c 12.197,0 22.119,9.922 22.119,22.119 0,12.197 -9.924,22.117 -22.119,22.117 z m 0,-42.736 C 10.75,1.501 1.5,10.751 1.5,22.12 c 0,11.369 9.25,20.619 20.619,20.619 11.369,0 20.619,-9.25 20.619,-20.619 0,-11.369 -9.25,-20.619 -20.619,-20.619 z" /></g><g
     id="g17" /><g
     id="g19" /><g
     id="g21" /><g
     id="g23" /><g
     id="g25" /><g
     id="g27" /><g
     id="g29" /><g
     id="g31" /><g
     id="g33" /><g
     id="g35" /><g
     id="g37" /><g
     id="g39" /><g
     id="g41" /><g
     id="g43" /><g
     id="g45" /></svg>
