<svg
   xmlns:dc="http://purl.org/dc/elements/1.1/"
   xmlns:cc="http://creativecommons.org/ns#"
   xmlns:rdf="http://www.w3.org/1999/02/22-rdf-syntax-ns#"
   xmlns:svg="http://www.w3.org/2000/svg"
   xmlns="http://www.w3.org/2000/svg"
   xmlns:sodipodi="http://sodipodi.sourceforge.net/DTD/sodipodi-0.dtd"
   xmlns:inkscape="http://www.inkscape.org/namespaces/inkscape"
   class="detail convertSvgInline replaced-svg"
   id="imgView"
   fill="#000000"
   viewBox="0 0 44.236 44.236"
   x="0px"
   y="0px"
   width="256"
   height="256"
   version="1.1"
   data-kw="configuration12"
   data-id="51874"
   xml:space="preserve"
   inkscape:version="0.91 r13725"
   sodipodi:docname="edit.svg"><metadata
     id="metadata53"><rdf:RDF><cc:Work
         rdf:about=""><dc:format>image/svg+xml</dc:format><dc:type
           rdf:resource="http://purl.org/dc/dcmitype/StillImage" /><dc:title></dc:title></cc:Work></rdf:RDF></metadata><defs
     id="defs51" /><sodipodi:namedview
     pagecolor="#ffffff"
     bordercolor="#666666"
     borderopacity="1"
     objecttolerance="10"
     gridtolerance="10"
     guidetolerance="10"
     inkscape:pageopacity="0"
     inkscape:pageshadow="2"
     inkscape:window-width="1920"
     inkscape:window-height="1017"
     id="namedview49"
     showgrid="false"
     inkscape:zoom="2.6074563"
     inkscape:cx="221.70951"
     inkscape:cy="106.74523"
     inkscape:window-x="-8"
     inkscape:window-y="-8"
     inkscape:window-maximized="1"
     inkscape:current-layer="imgView" /><circle
     style="color:#000000;display:inline;overflow:visible;visibility:visible;fill:#ffffff;fill-opacity:1;fill-rule:nonzero;stroke:none;stroke-width:0.03455937;stroke-linecap:butt;stroke-linejoin:miter;stroke-miterlimit:0;stroke-dasharray:none;stroke-dashoffset:0;stroke-opacity:1;marker:none;enable-background:accumulate"
     id="path4181"
     cx="22.118"
     cy="22.118"
     r="21.254015" /><g
     id="g3"><g
       id="g5"><path
         fill=""
         d="M 22.118 44.236 C 9.922 44.236 0 34.314 0 22.119 C 0 9.923 9.922 0 22.118 0 s 22.118 9.923 22.118 22.119 C 44.236 34.314 34.314 44.236 22.118 44.236 Z M 22.118 1.5 C 10.75 1.5 1.5 10.75 1.5 22.119 s 9.25 20.617 20.618 20.617 s 20.618 -9.248 20.618 -20.617 S 33.486 1.5 22.118 1.5 Z"
         id="path7" /><g
         id="g9"><circle
           fill=""
           cx="22.118"
           cy="22.438"
           r="1.41"
           id="circle11" /><path
           fill=""
           d="M 22.118 24.098 c -0.916 0 -1.66 -0.744 -1.66 -1.66 c 0 -0.915 0.745 -1.66 1.66 -1.66 s 1.659 0.745 1.659 1.66 C 23.777 23.354 23.034 24.098 22.118 24.098 Z M 22.118 21.277 c -0.64 0 -1.16 0.521 -1.16 1.16 s 0.521 1.161 1.16 1.161 c 0.639 0 1.159 -0.521 1.159 -1.161 S 22.758 21.277 22.118 21.277 Z"
           id="path13" /></g><g
         id="g15"><path
           fill=""
           d="M 22.118 32.42 c -0.6 0 -1.208 -0.061 -1.86 -0.182 c -0.446 -0.062 -0.83 -0.444 -0.898 -0.926 l -0.357 -1.838 c -0.461 -0.207 -0.896 -0.459 -1.287 -0.744 l -1.798 0.623 c -0.087 0.041 -0.233 0.07 -0.381 0.07 c -0.317 0 -0.622 -0.146 -0.837 -0.398 c -0.836 -0.952 -1.482 -2.074 -1.862 -3.233 c -0.183 -0.418 -0.023 -0.974 0.403 -1.257 l 1.358 -1.186 c -0.023 -0.23 -0.035 -0.479 -0.035 -0.752 c 0 -0.271 0.011 -0.52 0.035 -0.75 l -1.435 -1.245 c -0.35 -0.226 -0.51 -0.78 -0.303 -1.262 c 0.356 -1.098 1.003 -2.219 1.847 -3.181 c 0.299 -0.355 0.822 -0.488 1.261 -0.298 l 1.746 0.603 c 0.39 -0.284 0.825 -0.537 1.287 -0.745 l 0.364 -1.874 c 0.063 -0.447 0.449 -0.83 0.932 -0.894 c 1.125 -0.234 2.465 -0.243 3.693 0.009 c 0.432 0.055 0.817 0.438 0.886 0.921 l 0.357 1.838 c 0.447 0.204 0.875 0.453 1.283 0.746 l 1.803 -0.624 c 0.087 -0.04 0.232 -0.07 0.381 -0.07 c 0.318 0 0.624 0.146 0.838 0.401 c 0.834 0.949 1.48 2.07 1.861 3.23 c 0.183 0.419 0.022 0.974 -0.403 1.258 l -1.358 1.185 c 0.022 0.232 0.034 0.48 0.034 0.752 s -0.011 0.52 -0.034 0.75 l 1.434 1.245 c 0.351 0.226 0.511 0.78 0.304 1.261 c -0.356 1.098 -1.002 2.22 -1.847 3.182 c -0.303 0.357 -0.825 0.486 -1.262 0.299 l -1.75 -0.604 c -0.406 0.293 -0.836 0.541 -1.281 0.746 l -0.364 1.873 c -0.062 0.444 -0.446 0.827 -0.927 0.896 C 23.327 32.359 22.718 32.42 22.118 32.42 Z M 20.789 30.809 c 0.96 0.152 1.738 0.146 2.66 0 l 0.39 -2.012 c 0.05 -0.254 0.226 -0.464 0.466 -0.557 c 0.57 -0.221 1.111 -0.535 1.607 -0.936 c 0.201 -0.162 0.472 -0.207 0.716 -0.125 l 1.938 0.672 c 0.58 -0.705 1.033 -1.49 1.33 -2.301 l -1.549 -1.337 c -0.201 -0.174 -0.295 -0.442 -0.246 -0.703 c 0.047 -0.259 0.07 -0.558 0.07 -0.914 s -0.023 -0.654 -0.07 -0.913 c -0.05 -0.261 0.045 -0.529 0.246 -0.703 l 1.547 -1.342 c -0.313 -0.838 -0.764 -1.611 -1.33 -2.297 l -1.938 0.673 c -0.244 0.083 -0.516 0.036 -0.717 -0.125 c -0.495 -0.4 -1.035 -0.715 -1.605 -0.936 c -0.242 -0.093 -0.418 -0.303 -0.467 -0.557 l -0.391 -2.014 c -0.926 -0.156 -1.792 -0.148 -2.659 0 l -0.39 2.014 c -0.049 0.254 -0.225 0.464 -0.466 0.557 c -0.598 0.231 -1.149 0.552 -1.595 0.926 c -0.202 0.17 -0.478 0.22 -0.728 0.135 l -1.938 -0.672 c -0.581 0.707 -1.034 1.491 -1.33 2.301 l 1.549 1.337 c 0.201 0.175 0.294 0.442 0.246 0.705 c -0.048 0.255 -0.071 0.553 -0.071 0.911 s 0.023 0.657 0.071 0.912 c 0.049 0.263 -0.044 0.53 -0.246 0.705 l -1.547 1.343 c 0.313 0.836 0.763 1.609 1.329 2.297 l 1.938 -0.674 c 0.251 -0.084 0.526 -0.033 0.728 0.135 c 0.446 0.375 0.998 0.693 1.595 0.926 c 0.241 0.093 0.417 0.303 0.466 0.557 L 20.789 30.809 Z"
           id="path17" /></g></g></g><g
     id="g19" /><g
     id="g21" /><g
     id="g23" /><g
     id="g25" /><g
     id="g27" /><g
     id="g29" /><g
     id="g31" /><g
     id="g33" /><g
     id="g35" /><g
     id="g37" /><g
     id="g39" /><g
     id="g41" /><g
     id="g43" /><g
     id="g45" /><g
     id="g47" /></svg>
