<svg
   xmlns:dc="http://purl.org/dc/elements/1.1/"
   xmlns:cc="http://creativecommons.org/ns#"
   xmlns:rdf="http://www.w3.org/1999/02/22-rdf-syntax-ns#"
   xmlns:svg="http://www.w3.org/2000/svg"
   xmlns="http://www.w3.org/2000/svg"
   xml:space="preserve"
   viewBox="0 0 44.236 44.236"
   height="44.236"
   width="44.236"
   y="0px"
   x="0px"
   id="Capa_1"
   version="1.1"><metadata
     id="metadata53"><rdf:RDF><cc:Work
         rdf:about=""><dc:format>image/svg+xml</dc:format><dc:type
           rdf:resource="http://purl.org/dc/dcmitype/StillImage" /><dc:title></dc:title></cc:Work></rdf:RDF></metadata><defs
     id="defs51" /><circle
     r="22.118"
     cy="22.118"
     cx="22.118"
     id="path4181"
     style="color:#000000;display:inline;overflow:visible;visibility:visible;fill:#ffffff;fill-opacity:1;fill-rule:nonzero;stroke:none;stroke-width:0.40000001;stroke-linecap:round;stroke-linejoin:round;stroke-miterlimit:4;stroke-dasharray:none;stroke-opacity:1;marker:none;enable-background:accumulate" /><path
     id="path7"
     d="M 22.118,44.236 C 9.922,44.236 0,34.314 0,22.119 0,9.923 9.922,0 22.118,0 c 12.196,0 22.118,9.923 22.118,22.119 0,12.195 -9.922,22.117 -22.118,22.117 z m 0,-42.736 C 10.75,1.5 1.5,10.75 1.5,22.119 c 0,11.369 9.25,20.617 20.618,20.617 11.368,0 20.618,-9.248 20.618,-20.617 C 42.736,10.75 33.486,1.5 22.118,1.5 Z" /><g
     id="g19" /><g
     id="g21" /><g
     id="g23" /><g
     id="g25" /><g
     id="g27" /><g
     id="g29" /><g
     id="g31" /><g
     id="g33" /><g
     id="g35" /><g
     id="g37" /><g
     id="g39" /><g
     id="g41" /><g
     id="g43" /><g
     id="g45" /><g
     id="g47" /><g
     id="g3"
     transform="matrix(0.07890863,-0.07890863,0.07890863,0.07890863,0.90476107,22.118124)"><path
       id="path5"
       d="m 265.171,125.577 -80,-80 c -4.881,-4.881 -12.797,-4.881 -17.678,0 -4.882,4.882 -4.882,12.796 0,17.678 l 58.661,58.661 -213.654,0 c -6.903,0 -12.5,5.597 -12.5,12.5 0,6.902 5.597,12.5 12.5,12.5 l 213.654,0 -58.659,58.661 c -4.882,4.882 -4.882,12.796 0,17.678 2.44,2.439 5.64,3.661 8.839,3.661 3.199,0 6.398,-1.222 8.839,-3.661 l 79.998,-80 c 4.882,-4.882 4.882,-12.796 0,-17.678 z" /></g></svg>
