<svg
   xmlns:dc="http://purl.org/dc/elements/1.1/"
   xmlns:cc="http://creativecommons.org/ns#"
   xmlns:rdf="http://www.w3.org/1999/02/22-rdf-syntax-ns#"
   xmlns:svg="http://www.w3.org/2000/svg"
   xmlns="http://www.w3.org/2000/svg"
   xmlns:sodipodi="http://sodipodi.sourceforge.net/DTD/sodipodi-0.dtd"
   xmlns:inkscape="http://www.inkscape.org/namespaces/inkscape"
   version="1.1"
   id="Capa_1"
   x="0px"
   y="0px"
   width="44.236"
   height="44.236"
   viewBox="0 0 44.236 44.236"
   xml:space="preserve"
   inkscape:version="0.91 r13725"
   sodipodi:docname="move.svg"><metadata
     id="metadata53"><rdf:RDF><cc:Work
         rdf:about=""><dc:format>image/svg+xml</dc:format><dc:type
           rdf:resource="http://purl.org/dc/dcmitype/StillImage" /><dc:title /></cc:Work></rdf:RDF></metadata><defs
     id="defs51" /><sodipodi:namedview
     pagecolor="#ffffff"
     bordercolor="#666666"
     borderopacity="1"
     objecttolerance="10"
     gridtolerance="10"
     guidetolerance="10"
     inkscape:pageopacity="0"
     inkscape:pageshadow="2"
     inkscape:window-width="1600"
     inkscape:window-height="837"
     id="namedview49"
     showgrid="false"
     inkscape:zoom="7.5448594"
     inkscape:cx="28.520049"
     inkscape:cy="32.284412"
     inkscape:window-x="-8"
     inkscape:window-y="-8"
     inkscape:window-maximized="1"
     inkscape:current-layer="Capa_1" /><g
     id="g19" /><g
     id="g21" /><g
     id="g23" /><g
     id="g25" /><g
     id="g27" /><g
     id="g29" /><g
     id="g31" /><g
     id="g33" /><g
     id="g35" /><g
     id="g37" /><g
     id="g39" /><g
     id="g41" /><g
     id="g43" /><g
     id="g45" /><g
     id="g47" /><g
     id="g4177"><circle
       r="22.118"
       cy="22.118"
       cx="22.118"
       id="path4181"
       style="color:#000000;display:inline;overflow:visible;visibility:visible;fill:#ffffff;fill-opacity:1;fill-rule:nonzero;stroke:none;stroke-width:0.40000001;stroke-linecap:round;stroke-linejoin:round;stroke-miterlimit:4;stroke-dasharray:none;stroke-opacity:1;marker:none;enable-background:accumulate" /><path
       inkscape:connector-curvature="0"
       id="path7"
       d="M 22.118,44.236 C 9.922,44.236 0,34.314 0,22.119 0,9.923 9.922,0 22.118,0 c 12.196,0 22.118,9.923 22.118,22.119 0,12.195 -9.922,22.117 -22.118,22.117 z m 0,-42.736 C 10.75,1.5 1.5,10.75 1.5,22.119 c 0,11.369 9.25,20.617 20.618,20.617 11.368,0 20.618,-9.248 20.618,-20.617 C 42.736,10.75 33.486,1.5 22.118,1.5 Z" /><g
       id="g9"><circle
         id="circle11"
         r="1.41"
         cy="22.438"
         cx="22.118" /><path
         inkscape:connector-curvature="0"
         id="path13"
         d="m 22.118,24.098 c -0.916,0 -1.66,-0.744 -1.66,-1.66 0,-0.915 0.745,-1.66 1.66,-1.66 0.915,0 1.659,0.745 1.659,1.66 0,0.916 -0.743,1.66 -1.659,1.66 z m 0,-2.821 c -0.64,0 -1.16,0.521 -1.16,1.16 0,0.639 0.521,1.161 1.16,1.161 0.639,0 1.159,-0.521 1.159,-1.161 0,-0.64 -0.519,-1.16 -1.159,-1.16 z" /></g><path
       id="path7-2"
       d="m 37.039974,21.736127 -0.214021,-0.324019 -4.000025,-4.000045 c -0.390033,-0.390026 -1.025986,-0.390026 -1.414002,0 -0.390025,0.390034 -0.390025,1.024038 0,1.414005 l 2.292035,2.292038 -10.586092,0 0,-10.586064 2.292034,2.292038 c 0.388016,0.390034 1.024029,0.390034 1.413994,0 0.388016,-0.390026 0.388016,-1.02403 0,-1.413997 l -4.000031,-4.000112 -0.01,-0.006 -0.314013,-0.207977 -0.38197,-0.07803 -0.0038,0 -0.378011,0.07803 -0.314013,0.207977 -0.012,0.006 -4.000031,4.000045 c -0.390026,0.390034 -0.390026,1.024038 0,1.414004 0.390026,0.389966 1.024029,0.390026 1.413994,0 l 2.294052,-2.292045 0,10.586131 -10.586032,0 2.292034,-2.292038 c 0.390026,-0.390034 0.390026,-1.024038 0,-1.414005 -0.390033,-0.389966 -1.024036,-0.390026 -1.414002,0 l -4.000092,4.000045 -0.006,0.01 -0.207976,0.314013 -0.07803,0.382039 0,0.0038 0.07803,0.378011 0.207976,0.312003 0.006,0.012 4.000032,4.000045 c 0.390026,0.390034 1.024029,0.390034 1.413995,0 0.390033,-0.388016 0.390033,-1.02403 0,-1.414004 l -2.291967,-2.292098 10.586092,0 0,10.586131 -2.292034,-2.292046 c -0.390026,-0.388016 -1.024029,-0.388016 -1.413995,0 -0.390033,0.390034 -0.390033,1.025988 0,1.414005 l 4.000032,4.000045 0.324018,0.215964 0.378003,0.07602 0.0038,0 0.381978,-0.07803 0.324018,-0.214022 4.000031,-4.000045 c 0.388008,-0.390026 0.388008,-1.02598 0,-1.413997 -0.390033,-0.390033 -1.025986,-0.390033 -1.414002,0 l -2.292027,2.292038 0,-10.586063 10.586092,0 -2.292034,2.292038 c -0.388016,0.388016 -0.388016,1.024038 0,1.414004 0.390026,0.388016 1.025979,0.388016 1.413995,0 l 4.000031,-4.000045 0.215964,-0.324018 0.07602,-0.378011 0,-0.0038 -0.07803,-0.381979 z"
       style="fill:#010002"
       inkscape:connector-curvature="0" /></g></svg>
